<?xml version="1.0" encoding="utf-8"?>
<!-- Generator: Adobe Illustrator 24.3.0, SVG Export Plug-In . SVG Version: 6.00 Build 0)  -->
<svg version="1.1" id="Слой_1" xmlns="http://www.w3.org/2000/svg" xmlns:xlink="http://www.w3.org/1999/xlink" x="0px" y="0px"
	 viewBox="0 0 757.9 69.3" style="enable-background:new 0 0 757.9 69.3;" xml:space="preserve">
<style type="text/css">
	.st0{fill:#FFFFFF;}
	.st1{opacity:0.35;}
	.st2{opacity:0.35;fill:#FFFFFF;enable-background:new    ;}
	.st3{display:none;}
	.st4{display:inline;opacity:0.35;fill:#00F452;enable-background:new    ;}
	.st5{display:inline;opacity:0.54;fill:#FF13FF;enable-background:new    ;}
</style>
<g id="Слой_1_1_">
	<path class="st0" d="M212.1,69.6"/>
	<g class="st1">
		<polygon class="st0" points="134.5,23.7 109.6,23.7 109.6,2.3 0,3 0,69.3 98.7,69.3 134.6,23.8 		"/>
		<polygon class="st0" points="184.7,36.8 184.7,58.7 189.2,61 203.8,34.7 		"/>
		<polygon class="st0" points="647.4,4.5 647.4,28.3 593.2,23.7 590.1,13.6 590.3,5.3 190.8,5.3 179,5.3 175.4,21.9 145.2,21.9 
			145.9,36.6 167.8,34.2 167.8,34.2 179.4,16.6 184.9,16.6 185,31.3 206.1,29 213.1,16.9 218.4,16.9 218.5,21.1 218.5,69.3 
			218.5,69.6 385.2,69.3 385.2,75.3 454.1,75.3 454.1,67.6 507.3,67.6 507.3,75.3 547,75.3 547,67.6 587.3,67.6 591.1,71.4 
			591.1,51 618.1,54.5 618.1,43.3 593.2,35 625.8,35 704.6,52.2 719.4,54.5 732.4,68.2 757.9,68.2 757.9,0 		"/>
		<polygon class="st0" points="212.1,69.6 212.1,59.7 212.1,34.1 196.7,63.4 		"/>
	</g>
	<polygon class="st2" points="109.6,69.3 109.6,81.4 112.3,81.4 114.7,76.5 127.6,76.5 136.1,65.9 138.1,65.9 138.1,31.4 	"/>
	<polygon class="st2" points="145.2,41.2 145.2,42.5 158.7,47.9 165.4,38.5 	"/>
	<polygon class="st2" points="151.9,50.5 151.9,59.2 155.3,52.7 	"/>
	<polygon class="st2" points="156.7,65.4 163.2,54.9 164.7,56.4 160.7,65.4 	"/>
	<polygon class="st2" points="170.3,51.9 178.1,34.7 178.1,55.6 	"/>
	<polygon class="st2" points="171.4,59.2 171.4,65.4 178.1,65.4 178.1,62.3 	"/>
	<polygon class="st2" points="184.7,64.5 184.7,69.3 186.5,65.4 	"/>
	<polygon class="st2" points="194.2,68.3 192.2,70.4 199,70.4 	"/>
	<g id="Слой_4">
	</g>
</g>
<g id="Слой_5" class="st3">
	<polygon class="st4" points="0,-106.1 109.3,-106.1 109.3,-104.9 173.9,-104.9 176.6,-107.6 590.8,-107.6 593.5,-104.9 
		646.5,-104.9 757.9,-106.2 757.9,-46.8 647.1,-45.6 647.1,-16 590.8,-16 590.8,-48.6 178.1,-46.2 178.1,-19.3 174.7,-16 
		110.2,-16.6 110.1,-42.2 0,-46.2 	"/>
</g>
<g id="Слой_3" class="st3">
</g>
<g id="Слой_2_1_" class="st3">
	<polygon class="st5" points="0,-46.2 110.1,-42.2 110.2,-16.6 174.7,-16 178.1,-19.3 178.1,-46.2 590.8,-48.6 590.8,-16 647.1,-16 
		647.1,-45.6 757.9,-46.8 757.9,0 647.4,4.5 647.4,28.3 593.2,23.7 590.1,13.7 590.3,5.4 179,5.4 175.4,22 145.2,22 145.2,17.3 
		140.1,17.2 134.6,23.8 109.6,23.7 109.6,2.4 0,3 	"/>
</g>
</svg>
